HIERARCHY
ROOT Hips
{
	OFFSET 0.00000 0.00000 0.00000
	CHANNELS 6 Xposition Yposition Zposition Zrotation Yrotation Xrotation 
	JOINT LHipJoint
	{
		OFFSET 0 0 0
		CHANNELS 3 Zrotation Yrotation Xrotation
		JOINT LeftUpLeg
		{
			OFFSET 1.34019 -1.87553 0.90315
			CHANNELS 3 Zrotation Yrotation Xrotation
			JOINT LeftLeg
			{
				OFFSET 2.55316 -7.01474 0.00000
				CHANNELS 3 Zrotation Yrotation Xrotation
				JOINT LeftFoot
				{
					OFFSET 2.64657 -7.27139 0.00000
					CHANNELS 3 Zrotation Yrotation Xrotation
					JOINT LeftToeBase
					{
						OFFSET 0.24207 -0.66507 2.14489
						CHANNELS 3 Zrotation Yrotation Xrotation
						End Site
						{
							OFFSET 0.00000 -0.00000 1.12451
						}
					}
				}
			}
		}
	}
	JOINT RHipJoint
	{
		OFFSET 0 0 0
		CHANNELS 3 Zrotation Yrotation Xrotation
		JOINT RightUpLeg
		{
			OFFSET -1.28320 -1.87553 0.90315
			CHANNELS 3 Zrotation Yrotation Xrotation
			JOINT RightLeg
			{
				OFFSET -2.60484 -7.15674 0.00000
				CHANNELS 3 Zrotation Yrotation Xrotation
				JOINT RightFoot
				{
					OFFSET -2.60296 -7.15159 0.00000
					CHANNELS 3 Zrotation Yrotation Xrotation
					JOINT RightToeBase
					{
						OFFSET -0.31082 -0.85398 2.28998
						CHANNELS 3 Zrotation Yrotation Xrotation
						End Site
						{
							OFFSET -0.00000 -0.00000 1.21611
						}
					}
				}
			}
		}
	}
	JOINT LowerBack
	{
		OFFSET 0 0 0
		CHANNELS 3 Zrotation Yrotation Xrotation
		JOINT Spine
		{
			OFFSET -0.00160 2.05581 -0.15156
			CHANNELS 3 Zrotation Yrotation Xrotation
			JOINT Spine1
			{
				OFFSET 0.04594 2.06326 -0.01617
				CHANNELS 3 Zrotation Yrotation Xrotation
				JOINT Neck
				{
					OFFSET 0 0 0
					CHANNELS 3 Zrotation Yrotation Xrotation
					JOINT Neck1
					{
						OFFSET 0.03753 1.73883 0.26751
						CHANNELS 3 Zrotation Yrotation Xrotation
						JOINT Head
						{
							OFFSET -0.09795 1.76129 -0.31794
							CHANNELS 3 Zrotation Yrotation Xrotation
							End Site
							{
								OFFSET -0.03611 1.79987 -0.13846
							}
						}
					}
				}
				JOINT LeftShoulder
				{
					OFFSET 0 0 0
					CHANNELS 3 Zrotation Yrotation Xrotation
					JOINT LeftArm
					{
						OFFSET 3.30667 1.29205 -0.22445
						CHANNELS 3 Zrotation Yrotation Xrotation
						JOINT LeftForeArm
						{
							OFFSET 4.92785 -0.00000 -0.00000
							CHANNELS 3 Zrotation Yrotation Xrotation
							JOINT LeftHand
							{
								OFFSET 3.44052 -0.00000 0.00000
								CHANNELS 3 Zrotation Yrotation Xrotation
								JOINT LeftFingerBase
								{
									OFFSET 0 0 0
									CHANNELS 3 Zrotation Yrotation Xrotation
									JOINT LeftHandIndex1
									{
										OFFSET 0.65433 -0.00000 0.00000
										CHANNELS 3 Zrotation Yrotation Xrotation
										End Site
										{
											OFFSET 0.52753 -0.00000 0.00000
										}
									}
								}
								JOINT LThumb
								{
									OFFSET 0 0 0
									CHANNELS 3 Zrotation Yrotation Xrotation
									End Site
									{
										OFFSET 0.53559 -0.00000 0.53559
									}
								}
							}
						}
					}
				}
				JOINT RightShoulder
				{
					OFFSET 0 0 0
					CHANNELS 3 Zrotation Yrotation Xrotation
					JOINT RightArm
					{
						OFFSET -3.20032 1.49783 -0.27688
						CHANNELS 3 Zrotation Yrotation Xrotation
						JOINT RightForeArm
						{
							OFFSET -5.09181 -0.00000 -0.00000
							CHANNELS 3 Zrotation Yrotation Xrotation
							JOINT RightHand
							{
								OFFSET -3.49865 -0.00000 -0.00000
								CHANNELS 3 Zrotation Yrotation Xrotation
								JOINT RightFingerBase
								{
									OFFSET 0 0 0
									CHANNELS 3 Zrotation Yrotation Xrotation
									JOINT RightHandIndex1
									{
										OFFSET -0.66641 -0.00000 0.00000
										CHANNELS 3 Zrotation Yrotation Xrotation
										End Site
										{
											OFFSET -0.53728 -0.00000 0.00000
										}
									}
								}
								JOINT RThumb
								{
									OFFSET 0 0 0
									CHANNELS 3 Zrotation Yrotation Xrotation
									End Site
									{
										OFFSET -0.54548 -0.00000 0.54548
									}
								}
							}
						}
					}
				}
			}
		}
	}
}
MOTION
Frames: 13
Frame Time: .0083333
0.2894 17.1481 -12.3881 -6.9431 -5.5240 2.2412 0.0000 0.0000 0.0000 -17.6581 -1.4967 -28.5729 8.0801 16.1779 52.8508 0.7300 6.3809 -19.6961 0.4762 -4.4257 -12.2775 0.0000 0.0000 0.0000 16.8461 2.8902 -26.7391 -14.6822 -19.3080 74.2777 -0.8624 -12.7380 -26.3667 -0.3201 3.6366 -10.0565 -5.3630 0.7965 14.7671 1.5559 0.2868 1.4492 4.6488 0.3112 -6.7828 8.3764 3.2742 -13.4497 -2.6036 3.1793 18.5567 -1.9011 1.8334 8.1625 0.0000 -0.0000 0.0000 -75.1688 7.9608 19.9029 48.5446 -52.3914 -25.0165 -0.0000 0.0000 -5.9885 23.8966 -10.3830 -4.5656 -7.1250 0.0000 -0.0000 -2.2221 18.6522 1.3958 0.0000 -0.0000 0.0000 81.6787 -14.8312 30.4850 -21.4575 32.3584 -6.2930 0.0000 -0.0000 -4.4948 -15.2006 -3.1739 0.8618 7.1250 -0.0000 -0.0000 9.2706 -33.1656 2.7193
0.2793 17.1845 -12.2880 -6.7669 -5.2322 2.3331 0.0000 0.0000 0.0000 -17.8553 -1.4639 -28.1117 7.9670 16.0950 52.4439 0.7397 6.1180 -19.6003 0.4870 -4.4749 -12.4167 0.0000 0.0000 0.0000 16.6590 2.8036 -28.4694 -14.3216 -19.2087 73.1842 -0.8873 -12.3498 -26.1897 -0.3400 3.7468 -10.3654 -5.6034 0.6007 14.8747 1.4811 -0.0234 1.4329 4.7705 0.1676 -6.8224 8.4801 3.3600 -13.4818 -2.5952 3.2692 18.6099 -1.9047 1.8843 8.1938 -0.0000 -0.0000 0.0000 -74.9052 7.1401 20.9778 47.2281 -51.8145 -23.9776 -0.0000 0.0000 -4.9142 23.6849 -10.8798 -4.7330 -7.1250 0.0000 -0.0000 -2.3932 18.1325 1.5309 -0.0000 -0.0000 0.0000 81.4520 -15.0433 30.5787 -22.0571 33.0415 -6.6170 0.0000 -0.0000 -4.6995 -15.0675 -3.1725 0.8536 7.1250 -0.0000 -0.0000 9.3776 -33.1597 2.7527
0.2676 17.2255 -12.1887 -6.6329 -4.8855 2.4224 0.0000 0.0000 0.0000 -17.9870 -1.4164 -27.6320 7.8406 16.0007 51.9864 0.7484 5.7697 -19.4376 0.4973 -4.5211 -12.5474 0.0000 0.0000 0.0000 16.5134 2.7136 -30.1149 -13.9300 -19.0927 71.9906 -0.9001 -11.9242 -25.8912 -0.3575 3.8411 -10.6301 -5.8188 0.4091 15.0043 1.4289 -0.3237 1.4295 4.9008 0.0281 -6.8597 8.5967 3.4391 -13.5064 -2.6306 3.3566 18.5819 -1.9253 1.9295 8.1974 -0.0000 0.0000 0.0000 -74.6919 6.2722 22.0061 45.9890 -51.2439 -23.0075 -0.0000 0.0000 -3.8811 23.6308 -11.4176 -4.9502 -7.1250 0.0000 -0.0000 -2.4558 17.5554 1.6022 -0.0000 0.0000 0.0000 81.2460 -15.2863 30.5312 -22.6923 33.7506 -6.9666 0.0000 -0.0000 -4.9996 -15.0588 -3.2298 0.8684 7.1250 -0.0000 -0.0000 9.3917 -33.2179 2.7436
0.2543 17.2711 -12.0903 -6.5442 -4.5039 2.5024 0.0000 0.0000 0.0000 -18.0509 -1.3341 -27.1264 7.6997 15.8938 51.4735 0.7554 5.3422 -19.2119 0.5070 -4.5642 -12.6697 0.0000 0.0000 0.0000 16.4057 2.6407 -31.6565 -13.5151 -18.9603 70.7179 -0.8978 -11.4503 -25.4380 -0.3732 3.9238 -10.8623 -6.0108 0.2279 15.1587 1.4009 -0.6064 1.4405 5.0413 -0.1032 -6.8958 8.7202 3.5113 -13.5234 -2.7016 3.4407 18.4809 -1.9591 1.9689 8.1756 0.0000 0.0000 0.0000 -74.5381 5.3634 22.9730 44.8286 -50.6842 -22.1061 -0.0000 0.0000 -2.9529 23.7136 -11.9416 -5.1932 -7.1250 0.0000 -0.0000 -2.4236 16.9802 1.6116 0.0000 0.0000 0.0000 81.0582 -15.5563 30.3540 -23.3500 34.4693 -7.3354 0.0000 -0.0000 -5.3921 -15.1512 -3.3392 0.9036 7.1250 -0.0000 -0.0000 9.3306 -33.3329 2.6990
0.2397 17.3211 -11.9924 -6.4977 -4.1024 2.5702 0.0000 0.0000 0.0000 -18.0533 -1.2054 -26.5924 7.5435 15.7730 50.9013 0.7594 4.8523 -18.9254 0.5164 -4.6059 -12.7879 0.0000 0.0000 0.0000 16.3251 2.5982 -33.0821 -13.0848 -18.8126 69.3887 -0.8784 -10.9172 -24.8002 -0.3882 4.0010 -11.0796 -6.1837 0.0616 15.3370 1.3958 -0.8663 1.4649 5.1919 -0.2239 -6.9317 8.8398 3.5747 -13.5371 -2.7926 3.5177 18.3267 -1.9996 2.0020 8.1352 0.0000 0.0000 0.0000 -74.4467 4.4197 23.8719 43.7503 -50.1414 -21.2751 -0.0000 0.0000 -2.1826 23.8898 -12.3991 -5.4328 -7.1250 0.0000 -0.0000 -2.3252 16.4670 1.5720 0.0000 0.0000 0.0000 80.8878 -15.8481 30.0594 -24.0138 35.1788 -7.7145 0.0000 -0.0000 -5.8567 -15.3182 -3.4804 0.9526 7.1250 -0.0000 -0.0000 9.2132 -33.4831 2.6304
0.2239 17.3750 -11.8952 -6.4832 -3.6882 2.6274 0.0000 0.0000 0.0000 -18.0092 -1.0293 -26.0345 7.3726 15.6378 50.2698 0.7587 4.3227 -18.5797 0.5260 -4.6480 -12.9073 0.0000 0.0000 0.0000 16.2530 2.5921 -34.3905 -12.6480 -18.6514 68.0287 -0.8413 -10.3182 -23.9578 -0.4038 4.0797 -11.3010 -6.3455 -0.0879 15.5347 1.4087 -1.1022 1.5000 5.3520 -0.3331 -6.9682 8.9446 3.6265 -13.5471 -2.8855 3.5825 18.1372 -2.0398 2.0275 8.0815 0.0000 -0.0000 0.0000 -74.4148 3.4477 24.7031 42.7580 -49.6216 -20.5162 -0.0000 0.0000 -1.6012 24.1114 -12.7586 -5.6448 -7.1250 0.0000 -0.0000 -2.1920 16.0539 1.5015 0.0000 -0.0000 0.0000 80.7361 -16.1573 29.6609 -24.6665 35.8612 -8.0937 0.0000 -0.0000 -6.3672 -15.5352 -3.6270 1.0075 7.1250 -0.0000 -0.0000 9.0557 -33.6410 2.5494
0.2072 17.4321 -11.7987 -6.4842 -3.2586 2.6784 0.0000 0.0000 0.0000 -17.9406 -0.8154 -25.4614 7.1886 15.4887 49.5841 0.7520 3.7775 -18.1772 0.5363 -4.6924 -13.0333 0.0000 0.0000 0.0000 16.1657 2.6198 -35.5886 -12.2144 -18.4798 66.6668 -0.7878 -9.6529 -22.9084 -0.4208 4.1638 -11.5379 -6.5069 -0.2218 15.7466 1.4328 -1.3179 1.5420 5.5210 -0.4323 -7.0060 9.0222 3.6632 -13.5584 -2.9603 3.6285 17.9328 -2.0715 2.0439 8.0210 0.0000 -0.0000 0.0000 -74.4361 2.4531 25.4719 41.8539 -49.1307 -19.8300 -0.0000 0.0000 -1.2146 24.3382 -13.0040 -5.8116 -7.1250 0.0000 -0.0000 -2.0502 15.7628 1.4171 0.0000 -0.0000 0.0000 80.6069 -16.4779 29.1711 -25.2926 36.5015 -8.4633 0.0000 -0.0000 -6.9023 -15.7752 -3.7573 1.0606 7.1250 -0.0000 -0.0000 8.8772 -33.7835 2.4671
0.1895 17.4913 -11.7030 -6.4820 -2.8047 2.7299 0.0000 0.0000 0.0000 -17.8714 -0.5812 -24.8854 6.9946 15.3273 48.8538 0.7385 3.2393 -17.7237 0.5472 -4.7391 -13.1660 0.0000 0.0000 0.0000 16.0377 2.6751 -36.6901 -11.7941 -18.3022 65.3346 -0.7210 -8.9290 -21.6699 -0.4393 4.2532 -11.7900 -6.6800 -0.3435 15.9650 1.4601 -1.5201 1.5876 5.6984 -0.5246 -7.0433 9.0738 3.6843 -13.5686 -3.0105 3.6536 17.7175 -2.0931 2.0508 7.9546 -0.0000 0.0000 0.0000 -74.5028 1.4378 26.1852 41.0346 -48.6711 -19.2126 -0.0000 0.0000 -1.0033 24.5491 -13.1361 -5.9264 -7.1250 0.0000 -0.0000 -1.9134 15.5956 1.3293 -0.0000 0.0000 0.0000 80.5031 -16.8033 28.6046 -25.8815 37.0915 -8.8161 0.0000 -0.0000 -7.4548 -16.0100 -3.8626 1.1073 7.1250 -0.0000 -0.0000 8.6995 -33.9006 2.3918
0.1708 17.5514 -11.6084 -6.4608 -2.3145 2.7897 0.0000 0.0000 0.0000 -17.8211 -0.3473 -24.3197 6.7942 15.1561 48.0914 0.7188 2.7244 -17.2292 0.5583 -4.7861 -13.2993 0.0000 0.0000 0.0000 15.8476 2.7510 -37.7110 -11.3967 -18.1238 64.0631 -0.6459 -8.1636 -20.2817 -0.4586 4.3442 -12.0470 -6.8724 -0.4580 16.1825 1.4841 -1.7171 1.6333 5.8832 -0.6137 -7.0787 9.1034 3.6894 -13.5737 -3.0343 3.6568 17.4914 -2.1048 2.0482 7.8815 0.0000 -0.0000 0.0000 -74.6070 0.4025 26.8509 40.2928 -48.2424 -18.6574 -0.0000 0.0000 -0.9288 24.7303 -13.1636 -5.9879 -7.1250 0.0000 -0.0000 -1.7905 15.5450 1.2458 0.0000 -0.0000 0.0000 80.4266 -17.1280 27.9755 -26.4283 37.6285 -9.1479 0.0000 -0.0000 -8.0267 -16.2131 -3.9486 1.1471 7.1250 -0.0000 -0.0000 8.5448 -33.9967 2.3283
0.1512 17.6113 -11.5146 -6.4097 -1.7759 2.8656 0.0000 0.0000 0.0000 -17.8032 -0.1344 -23.7747 6.5913 14.9778 47.3110 0.6942 2.2428 -16.7070 0.5684 -4.8286 -13.4203 0.0000 0.0000 0.0000 15.5810 2.8397 -38.6675 -11.0306 -17.9500 62.8809 -0.5679 -7.3805 -18.8024 -0.4774 4.4310 -12.2924 -7.0863 -0.5710 16.3922 1.5004 -1.9165 1.6756 6.0731 -0.7035 -7.1108 9.1206 3.6801 -13.5736 -3.0373 3.6391 17.2541 -2.1099 2.0368 7.8020 0.0000 0.0000 0.0000 -74.7439 -0.6516 27.4763 39.6195 -47.8429 -18.1567 -0.0000 0.0000 -0.9420 24.8750 -13.1050 -6.0013 -7.1250 0.0000 -0.0000 -1.6873 15.5921 1.1722 0.0000 0.0000 0.0000 80.3774 -17.4482 27.2979 -26.9321 38.1144 -9.4572 0.0000 -0.0000 -8.6232 -16.3644 -4.0308 1.1825 7.1250 -0.0000 -0.0000 8.4316 -34.0874 2.2782
0.1308 17.6698 -11.4215 -6.3272 -1.1810 2.9640 0.0000 0.0000 0.0000 -17.8203 0.0408 -23.2592 6.3897 14.7956 46.5263 0.6662 1.7990 -16.1718 0.5766 -4.8627 -13.5173 0.0000 0.0000 0.0000 15.2354 2.9349 -39.5729 -10.7029 -17.7866 61.8128 -0.4926 -6.6078 -17.3040 -0.4945 4.5085 -12.5119 -7.3163 -0.6874 16.5884 1.5076 -2.1241 1.7120 6.2644 -0.7968 -7.1385 9.1334 3.6581 -13.5673 -3.0262 3.6028 17.0065 -2.1118 2.0174 7.7166 -0.0000 0.0000 0.0000 -74.9099 -1.7237 28.0681 39.0046 -47.4690 -17.7022 -0.0000 0.0000 -0.9994 24.9763 -12.9783 -5.9721 -7.1250 0.0000 -0.0000 -1.6094 15.7186 1.1136 -0.0000 0.0000 0.0000 80.3527 -17.7624 26.5862 -27.3959 38.5541 -9.7448 0.0000 -0.0000 -9.2439 -16.4532 -4.1246 1.2169 7.1250 -0.0000 -0.0000 8.3705 -34.1876 2.2408
0.1098 17.7260 -11.3288 -6.2185 -0.5261 3.0893 0.0000 0.0000 0.0000 -17.8673 0.1679 -22.7788 6.1928 14.6126 45.7507 0.6365 1.3935 -15.6385 0.5822 -4.8856 -13.5827 0.0000 0.0000 0.0000 14.8181 3.0304 -40.4377 -10.4188 -17.6387 60.8791 -0.4248 -5.8745 -15.8645 -0.5096 4.5757 -12.7021 -7.5508 -0.8110 16.7672 1.5067 -2.3423 1.7400 6.4519 -0.8951 -7.1622 9.1447 3.6240 -13.5550 -3.0039 3.5491 16.7521 -2.1118 1.9904 7.6268 -0.0000 -0.0000 0.0000 -75.1046 -2.8091 28.6321 38.4405 -47.1183 -17.2876 -0.0000 0.0000 -1.0629 25.0293 -12.8107 -5.9109 -7.1250 0.0000 -0.0000 -1.5620 15.8953 1.0749 -0.0000 -0.0000 0.0000 80.3489 -18.0722 25.8520 -27.8222 38.9521 -10.0117 0.0000 -0.0000 -9.8798 -16.4805 -4.2354 1.2517 7.1250 -0.0000 -0.0000 8.3617 -34.3029 2.2148
0.0885 17.7790 -11.2364 -6.0908 0.1886 3.2437 0.0000 0.0000 0.0000 -17.9369 0.2413 -22.3375 6.0039 14.4321 44.9972 0.6067 1.0261 -15.1206 0.5851 -4.8979 -13.6174 0.0000 0.0000 0.0000 14.3419 3.1181 -41.2708 -10.1824 -17.5111 60.0961 -0.3675 -5.2083 -14.5558 -0.5229 4.6344 -12.8687 -7.7779 -0.9437 16.9272 1.4997 -2.5711 1.7575 6.6306 -0.9984 -7.1839 9.1521 3.5778 -13.5410 -2.9689 3.4775 16.5016 -2.1088 1.9559 7.5368 -0.0000 0.0000 0.0000 -75.3295 -3.8998 29.1738 37.9220 -46.7894 -16.9087 -0.0000 0.0000 -1.1043 25.0334 -12.6322 -5.8316 -7.1250 0.0000 -0.0000 -1.5476 16.0897 1.0585 -0.0000 0.0000 0.0000 80.3623 -18.3804 25.1027 -28.2128 39.3114 -10.2582 0.0000 -0.0000 -10.5104 -16.4527 -4.3531 1.2841 7.1250 -0.0000 -0.0000 8.3987 -34.4231 2.2000
